<?xml version="1.0" standalone="no"?>
<!DOCTYPE svg PUBLIC "-//W3C//DTD SVG 20010904//EN"
 "http://www.w3.org/TR/2001/REC-SVG-20010904/DTD/svg10.dtd">
<svg version="1.0" xmlns="http://www.w3.org/2000/svg"
 width="1543.000000pt" height="811.000000pt" viewBox="0 0 1543.000000 811.000000"
 preserveAspectRatio="xMidYMid meet">

<g transform="translate(0.000000,811.000000) scale(0.100000,-0.100000)"
fill="#000000" stroke="none">
<path d="M1572 7520 c-291 -41 -523 -170 -608 -339 -26 -50 -29 -66 -29 -156
0 -90 3 -106 29 -159 16 -32 59 -91 97 -130 114 -121 251 -209 614 -395 279
-143 380 -206 466 -291 66 -64 79 -83 94 -132 21 -72 9 -123 -42 -179 -79 -87
-196 -129 -359 -129 -389 0 -712 210 -824 534 -10 31 -24 98 -32 151 -10 76
-15 95 -28 93 -13 -3 -15 -39 -18 -260 l-2 -258 47 -34 c134 -98 403 -208 605
-247 195 -38 455 -35 635 7 226 52 389 157 456 293 29 60 32 74 32 161 0 81
-4 102 -25 145 -64 127 -234 245 -565 395 -183 82 -237 108 -325 153 -198 103
-318 206 -365 312 -31 70 -34 179 -6 240 69 153 261 222 500 181 341 -60 579
-300 624 -632 8 -56 16 -84 24 -84 10 0 13 56 13 264 l0 264 -48 31 c-118 75
-292 142 -472 181 -108 24 -383 35 -488 20z"/>
<path d="M6835 7523 c-72 -8 -213 -42 -281 -68 -425 -160 -687 -507 -688 -910
0 -150 26 -259 96 -399 98 -197 255 -348 473 -456 547 -271 1229 -98 1529 390
226 367 161 824 -162 1132 -156 148 -344 245 -572 294 -74 15 -318 26 -395 17z
m262 -52 c98 -25 176 -73 258 -156 243 -248 338 -708 229 -1117 -31 -117 -117
-294 -183 -374 -130 -159 -313 -241 -481 -216 -307 45 -537 369 -582 818 -37
378 103 773 337 951 135 103 273 134 422 94z"/>
<path d="M3546 7492 c-9 -15 -808 -1866 -813 -1884 -4 -14 1 -18 24 -18 27 0
31 6 81 123 30 67 97 222 150 345 l97 222 400 0 400 -1 89 -202 c49 -111 119
-266 154 -344 l65 -143 218 0 c121 0 219 3 219 8 0 4 -184 433 -408 952 l-408
945 -131 3 c-72 1 -134 -1 -137 -6z m126 -724 c103 -238 186 -433 184 -435 -1
-2 -172 -2 -379 -1 l-376 3 158 365 c87 201 171 395 187 432 16 37 31 68 34
68 3 0 90 -194 192 -432z"/>
<path d="M4760 6545 l0 -955 735 0 c728 0 735 0 735 20 0 20 -7 20 -515 20
l-515 0 0 935 0 935 -220 0 -220 0 0 -955z"/>
<path d="M8230 6545 l0 -955 25 0 25 0 2 699 3 699 380 -355 c209 -196 544
-509 744 -697 278 -261 370 -342 392 -344 l29 -3 0 955 0 956 -25 0 -25 0 0
-676 c0 -412 -4 -674 -9 -672 -5 2 -137 123 -293 269 -156 146 -478 449 -716
672 l-434 407 -49 0 -49 0 0 -955z"/>
<path d="M10790 6545 l0 -955 215 0 214 0 3 403 3 402 46 96 c129 269 318 441
533 485 124 26 252 -9 297 -82 43 -71 18 -197 -54 -272 -51 -54 -107 -89 -288
-178 -94 -47 -199 -102 -233 -124 -81 -52 -150 -126 -184 -198 -23 -49 -27
-70 -27 -147 0 -78 4 -97 28 -146 68 -139 224 -235 412 -254 122 -12 342 26
488 85 220 90 421 274 520 476 122 248 127 512 16 752 -128 277 -385 476 -729
565 -159 42 -246 47 -767 47 l-493 0 0 -955z m942 891 c410 -95 635 -388 655
-851 9 -230 -22 -407 -101 -570 -117 -242 -289 -365 -511 -365 -170 0 -322 79
-387 202 -18 34 -23 59 -23 123 0 98 22 151 92 226 67 71 130 112 340 218 100
50 208 111 240 136 135 102 179 258 103 364 -111 153 -394 145 -673 -20 -43
-25 -107 -77 -159 -130 l-88 -88 0 391 0 390 223 -5 c148 -4 244 -11 289 -21z"/>
<path d="M13032 6548 l3 -953 733 -3 c727 -2 732 -2 732 18 0 20 -6 20 -514
20 -300 0 -517 4 -520 9 -4 5 -3 221 1 480 l6 471 324 0 c316 0 323 0 323 20
0 20 -7 20 -325 20 l-325 0 0 415 0 415 498 2 c434 3 497 5 497 18 0 13 -88
15 -718 18 l-717 2 2 -952z"/>
<path d="M11680 4235 c-279 -47 -480 -166 -563 -334 -28 -58 -32 -75 -32 -151
0 -74 4 -93 31 -151 36 -76 126 -176 222 -248 94 -69 235 -151 467 -270 276
-142 396 -215 477 -290 74 -68 104 -115 114 -179 16 -103 -74 -207 -226 -258
-83 -29 -305 -26 -420 5 -177 47 -295 111 -408 223 -131 130 -201 278 -219
461 -4 47 -10 67 -19 67 -12 0 -14 -48 -14 -259 l0 -259 43 -32 c61 -46 287
-154 393 -189 184 -60 288 -76 509 -76 216 0 295 11 443 60 163 55 297 157
353 271 20 41 24 64 24 144 0 108 -16 152 -82 230 -88 102 -221 182 -581 346
-409 186 -547 284 -619 434 -21 44 -26 70 -26 130 0 107 38 178 128 235 78 50
152 68 275 68 134 -1 217 -21 349 -85 91 -44 116 -62 191 -137 72 -71 95 -102
133 -181 47 -95 77 -205 77 -281 0 -28 4 -39 15 -39 13 0 15 36 15 260 l0 260
-57 37 c-127 81 -312 148 -507 183 -128 23 -365 26 -486 5z"/>
<path d="M960 3275 l0 -955 730 0 c723 0 730 0 730 20 0 20 -7 20 -515 20
l-515 0 0 935 0 935 -215 0 -215 0 0 -955z"/>
<path d="M2944 3283 c-225 -522 -409 -952 -409 -958 0 -18 44 -17 55 2 6 10
76 167 154 348 l143 330 399 3 399 2 110 -247 c60 -137 131 -294 157 -351 l47
-102 215 0 c118 0 217 3 219 8 2 4 -181 435 -407 957 l-411 950 -131 3 -130 3
-410 -948z m531 213 c102 -236 185 -432 185 -437 0 -5 -168 -9 -379 -9 l-380
0 24 58 c12 31 90 212 173 402 82 190 157 363 166 384 9 22 18 37 21 35 2 -3
88 -198 190 -433z"/>
<path d="M5400 3276 l0 -956 215 0 215 0 0 388 1 387 28 71 c82 208 253 408
419 489 154 76 316 74 403 -4 48 -43 62 -91 49 -163 -25 -129 -83 -179 -386
-332 -227 -114 -311 -173 -363 -254 -96 -151 -76 -331 52 -455 131 -128 318
-172 563 -132 727 118 1103 857 723 1424 -131 197 -370 362 -625 432 -181 50
-201 51 -761 56 l-533 5 0 -956z m985 876 c102 -28 223 -86 301 -146 129 -97
231 -263 281 -456 25 -96 27 -121 28 -300 0 -205 -6 -250 -51 -394 -109 -344
-370 -531 -659 -471 -253 53 -374 247 -282 449 51 110 133 174 386 301 188 93
268 143 315 195 57 64 79 116 80 190 1 106 -52 175 -163 215 -64 22 -209 20
-301 -5 -168 -46 -359 -166 -445 -278 -21 -29 -40 -52 -42 -52 -2 0 -3 176 -3
391 l0 391 238 -4 c203 -4 248 -8 317 -26z"/>
<path d="M8154 4198 c-86 -182 -809 -1875 -803 -1882 4 -5 18 -6 31 -3 18 5
33 29 67 109 24 57 91 212 149 346 l104 242 398 0 397 0 133 -297 c73 -164
144 -319 157 -345 l23 -48 220 0 219 0 -36 83 c-20 45 -70 163 -112 262 -42
99 -211 492 -376 873 l-299 692 -128 0 -128 0 -16 -32z m122 -673 c91 -209
174 -401 184 -427 l20 -48 -380 0 c-210 0 -380 4 -380 9 0 5 38 96 84 202 265
616 290 672 299 658 4 -8 82 -185 173 -394z"/>
<path d="M9350 3275 l0 -955 25 0 25 0 2 698 3 699 240 -225 c132 -123 258
-240 280 -261 142 -130 824 -769 890 -833 60 -59 87 -78 108 -78 l27 0 0 955
0 955 -25 0 -25 0 -2 -681 -3 -681 -110 103 c-60 56 -177 166 -260 243 -82 78
-192 181 -245 230 -52 50 -169 160 -260 246 -91 87 -257 243 -369 348 l-204
192 -49 0 -48 0 0 -955z"/>
<path d="M13010 3276 l0 -954 233 -7 c127 -3 455 -5 727 -3 l495 3 3 23 3 22
-514 0 -515 0 -7 243 c-3 133 -5 346 -3 472 l3 230 328 3 c318 2 327 3 327 22
0 19 -9 20 -327 22 l-328 3 0 415 0 415 498 3 c489 2 497 3 497 22 0 20 -8 20
-710 20 l-710 0 0 -954z"/>
<path d="M7100 1260 c-1101 -43 -1820 -153 -1820 -280 0 -117 596 -217 1610
-271 325 -17 1320 -23 1690 -10 956 33 1635 112 1856 217 93 44 93 84 0 128
-193 91 -686 158 -1541 207 -233 13 -1516 20 -1795 9z"/>
</g>
</svg>
